;TYPE=PLATED
;Layer: PTH_Through
;EasyEDA Pro v2.2.32.3, 2024-11-13 01:00:44
;Gerber Generator version 0.3
M48
METRIC,LZ,000.00000
;Hole size 1 = 0.88900 METRIC
T01C0.88900
;Hole size 2 = 0.91440 METRIC
T02C0.91440
;Hole size 3 = 0.94488 METRIC
T03C0.94488
;Hole size 4 = 1.00000 METRIC
T04C1.00000
%
G05
G90
T01
X66.80225Y-35.56008
X66.80225Y-33.02008
X66.80225Y-30.48008
X66.80225Y-27.94008
X66.80225Y-25.40008
X66.80251Y-22.86008
T02
X48.52416Y-15.9131
X51.06416Y-15.9131
X53.60416Y-15.9131
X56.14416Y-15.9131
X58.68416Y-15.9131
X61.22416Y-15.9131
X63.76416Y-15.9131
T03
X33.147Y-25.4
X33.147Y-27.94
X33.147Y-30.48
X33.147Y-33.02
X33.147Y-35.56
X33.147Y-38.1
X33.147Y-40.64
X33.147Y-43.18
X33.147Y-45.72
X33.147Y-48.26
X33.147Y-50.8
X33.147Y-53.34
X33.147Y-55.88
X33.147Y-58.42
X33.147Y-60.96
X58.547Y-60.96
X58.547Y-58.42
X58.547Y-55.88
X58.547Y-53.34
X58.547Y-50.8
X58.547Y-48.26
X58.547Y-45.72
X58.547Y-43.18
X58.547Y-40.64
X58.547Y-38.1
X58.547Y-35.56
X58.547Y-33.02
X58.547Y-30.48
X58.547Y-27.94
X58.547Y-25.4
T04
X26.416Y-54.229
X26.416Y-51.689
X26.416Y-49.149
X29.21Y-60.96
X29.21Y-58.42
X26.289Y-33.274
X26.289Y-35.81399
X26.289Y-38.35399
X26.289Y-40.89398
M30