G04 Layer: TopLayer*
G04 EasyEDA Pro v2.2.32.3, 2024-11-13 01:00:44*
G04 Gerber Generator version 0.3*
G04 Scale: 100 percent, Rotated: No, Reflected: No*
G04 Dimensions in millimeters*
G04 Leading zeros omitted, absolute positions, 3 integers and 5 decimals*
%FSLAX35Y35*%
%MOMM*%
%ADD10C,1.5748*%
%ADD11R,1.5748X1.5748*%
%ADD12C,1.524*%
%ADD13C,1.8*%
%ADD14R,1.8X1.8*%
%ADD15R,1.7X1.7*%
%ADD16C,1.7*%
%ADD17R,1.7X1.7*%
%ADD18C,0.762*%
G75*


G04 Pad Start*
G54D10*
G01X6680200Y-3555987D03*
G01X6680200Y-3301987D03*
G01X6680200Y-3047987D03*
G01X6680200Y-2793987D03*
G01X6680200Y-2539987D03*
G54D11*
G01X6680200Y-2286013D03*
G54D10*
G01X3314700Y-2540000D03*
G01X3314700Y-2794000D03*
G01X3314700Y-3048000D03*
G01X3314700Y-3302000D03*
G01X3314700Y-3556000D03*
G01X3314700Y-3810000D03*
G01X3314700Y-4064000D03*
G01X3314700Y-4318000D03*
G01X3314700Y-4572000D03*
G01X3314700Y-4826000D03*
G01X3314700Y-5080000D03*
G01X3314700Y-5334000D03*
G01X3314700Y-5588000D03*
G01X3314700Y-5842000D03*
G01X3314700Y-6096000D03*
G01X5854700Y-6096000D03*
G01X5854700Y-5842000D03*
G01X5854700Y-5588000D03*
G01X5854700Y-5334000D03*
G01X5854700Y-5080000D03*
G01X5854700Y-4826000D03*
G01X5854700Y-4572000D03*
G01X5854700Y-4318000D03*
G01X5854700Y-4064000D03*
G01X5854700Y-3810000D03*
G01X5854700Y-3556000D03*
G01X5854700Y-3302000D03*
G01X5854700Y-3048000D03*
G01X5854700Y-2794000D03*
G01X5854700Y-2540000D03*
G54D12*
G01X4852416Y-1591310D03*
G01X5106416Y-1591310D03*
G01X5360416Y-1591310D03*
G01X5614416Y-1591310D03*
G01X5868416Y-1591310D03*
G01X6122416Y-1591310D03*
G01X6376416Y-1591310D03*
G54D13*
G01X2641600Y-5422900D03*
G01X2641600Y-5168900D03*
G54D14*
G01X2641600Y-4914900D03*
G54D15*
G01X2921000Y-6096000D03*
G54D16*
G01X2921000Y-5842000D03*
G54D17*
G01X2628900Y-3327400D03*
G54D16*
G01X2628900Y-3581399D03*
G01X2628900Y-3835399D03*
G01X2628900Y-4089398D03*
G04 Pad End*

G04 Track Start*
G54D18*
G01X5854700Y-2794000D02*
G01X6680187Y-2794000D01*
G01X5854700Y-3556000D02*
G01X6172187Y-3556000D01*
G01X6680200Y-3047987D01*
G01X6680200Y-3301987D02*
G01X6299200Y-3682987D01*
G01X6299200Y-3683000D02*
G01X6299200Y-5397500D01*
G01X5854700Y-5842000D01*
G01X6680200Y-3555987D02*
G01X6680200Y-5270500D01*
G01X5854700Y-6096000D01*
G01X5106416Y-1591310D02*
G01X5562600Y-2047494D01*
G01X5562600Y-2565400D01*
G01X5791200Y-2794000D01*
G01X5854700Y-2794000D01*
G01X5360416Y-1591310D02*
G01X5547106Y-1778000D01*
G01X6502400Y-1778000D02*
G01X6896100Y-2171700D01*
G01X6896100Y-2832087D02*
G01X6680200Y-3047987D01*
G01X5547106Y-1778000D02*
G01X6502400Y-1778000D01*
G01X6896100Y-2171700D02*
G01X6896100Y-2832087D01*
G01X2921000Y-5842000D02*
G01X3314700Y-5842000D01*
G01X6389116Y-1591310D02*
G01X6465315Y-1667509D01*
G01X6557010Y-1667509D01*
G01X7010400Y-2120899D01*
G01X7010400Y-2971799D01*
G01X6692910Y-3289287D01*
G01X6376416Y-1591310D02*
G01X6389116Y-1591310D01*
G01X2921000Y-6096000D02*
G01X3314700Y-6096000D01*
G01X5854700Y-6096000D01*
G01X2628900Y-3581399D02*
G01X3086100Y-4038599D01*
G01X3086100Y-4292600D01*
G01X3314700Y-4521200D01*
G01X3314700Y-4572000D01*
G01X2641600Y-4914900D02*
G01X3314700Y-5588000D01*
G01X2628900Y-5168900D02*
G01X2641600Y-5168900D01*
G01X2438400Y-4978400D02*
G01X2628900Y-5168900D01*
G01X2628900Y-4089398D02*
G01X2438400Y-4279898D01*
G01X2438400Y-4978400D01*
G01X2743200Y-6096000D02*
G01X2921000Y-6096000D01*
G01X2425700Y-5778500D02*
G01X2743200Y-6096000D01*
G01X2641600Y-5168900D02*
G01X2425700Y-5384800D01*
G01X2425700Y-5778500D01*
G01X2921000Y-5702300D02*
G01X2921000Y-5842000D01*
G01X2641600Y-5422900D02*
G01X2921000Y-5702300D01*
G01X3975100Y-3822700D02*
G01X4928616Y-2869184D01*
G01X4928616Y-1667510D01*
G01X4852416Y-1591310D01*
G01X3314700Y-6096000D02*
G01X3975100Y-5435600D01*
G01X3975100Y-3822700D01*
G04 Track End*

M02*

