G04 Layer: TopSolderMaskLayer*
G04 EasyEDA Pro v2.2.32.3, 2024-11-13 01:00:44*
G04 Gerber Generator version 0.3*
G04 Scale: 100 percent, Rotated: No, Reflected: No*
G04 Dimensions in millimeters*
G04 Leading zeros omitted, absolute positions, 3 integers and 5 decimals*
%FSLAX35Y35*%
%MOMM*%
%AMRoundRect*1,1,$1,$2,$3*1,1,$1,$4,$5*1,1,$1,0-$2,0-$3*1,1,$1,0-$4,0-$5*20,1,$1,$2,$3,$4,$5,0*20,1,$1,$4,$5,0-$2,0-$3,0*20,1,$1,0-$2,0-$3,0-$4,0-$5,0*20,1,$1,0-$4,0-$5,$2,$3,0*4,1,4,$2,$3,$4,$5,0-$2,0-$3,0-$4,0-$5,$2,$3,0*%
%ADD10C,1.6764*%
%ADD11RoundRect,0.09579X0.7903X0.7903X0.7903X-0.7903*%
%ADD12C,1.7272*%
%ADD13C,1.9016*%
%ADD14RoundRect,0.09645X0.90257X-0.90257X-0.90257X-0.90257*%
%ADD15RoundRect,0.09618X-0.85271X-0.85271X-0.85271X0.85271*%
%ADD16C,1.8016*%
%ADD17R,1.7X1.7*%
%ADD18C,1.7*%
G75*


G04 Pad Start*
G54D10*
G01X6680200Y-3555987D03*
G01X6680200Y-3301987D03*
G01X6680200Y-3047987D03*
G01X6680200Y-2793987D03*
G01X6680200Y-2539987D03*
G54D11*
G01X6680200Y-2286013D03*
G54D10*
G01X3314700Y-2540000D03*
G01X3314700Y-2794000D03*
G01X3314700Y-3048000D03*
G01X3314700Y-3302000D03*
G01X3314700Y-3556000D03*
G01X3314700Y-3810000D03*
G01X3314700Y-4064000D03*
G01X3314700Y-4318000D03*
G01X3314700Y-4572000D03*
G01X3314700Y-4826000D03*
G01X3314700Y-5080000D03*
G01X3314700Y-5334000D03*
G01X3314700Y-5588000D03*
G01X3314700Y-5842000D03*
G01X3314700Y-6096000D03*
G01X5854700Y-6096000D03*
G01X5854700Y-5842000D03*
G01X5854700Y-5588000D03*
G01X5854700Y-5334000D03*
G01X5854700Y-5080000D03*
G01X5854700Y-4826000D03*
G01X5854700Y-4572000D03*
G01X5854700Y-4318000D03*
G01X5854700Y-4064000D03*
G01X5854700Y-3810000D03*
G01X5854700Y-3556000D03*
G01X5854700Y-3302000D03*
G01X5854700Y-3048000D03*
G01X5854700Y-2794000D03*
G01X5854700Y-2540000D03*
G54D12*
G01X4852416Y-1591310D03*
G01X5106416Y-1591310D03*
G01X5360416Y-1591310D03*
G01X5614416Y-1591310D03*
G01X5868416Y-1591310D03*
G01X6122416Y-1591310D03*
G01X6376416Y-1591310D03*
G54D13*
G01X2641600Y-5422900D03*
G01X2641600Y-5168900D03*
G54D14*
G01X2641600Y-4914900D03*
G54D15*
G01X2921000Y-6096000D03*
G54D16*
G01X2921000Y-5842000D03*
G54D17*
G01X2628900Y-3327400D03*
G54D18*
G01X2628900Y-3581399D03*
G01X2628900Y-3835399D03*
G01X2628900Y-4089398D03*
G04 Pad End*

M02*

